<svg width="24" height="24" viewBox="0 0 24 24" fill="none" xmlns="http://www.w3.org/2000/svg">
<mask id="mask0_1321_5796" style="mask-type:alpha" maskUnits="userSpaceOnUse" x="0" y="0" width="24" height="24">
<rect width="24" height="24" fill="#CCE4F2"/>
</mask>
<g mask="url(#mask0_1321_5796)">
<path d="M13 23C12.45 23 11.9792 22.8042 11.5875 22.4125C11.1958 22.0208 11 21.55 11 21V18.925C9.28333 18.6917 7.85417 17.9208 6.7125 16.6125C5.57083 15.3042 5 13.7667 5 12V3C5 2.45 5.19583 1.97917 5.5875 1.5875C5.97917 1.19583 6.45 1 7 1H17C17.55 1 18.0208 1.19583 18.4125 1.5875C18.8042 1.97917 19 2.45 19 3V12C19 13.7667 18.4292 15.3042 17.2875 16.6125C16.1458 17.9208 14.7167 18.6917 13 18.925V21H19V23H13ZM13.75 13H16.9C16.9333 12.8333 16.9583 12.6708 16.975 12.5125C16.9917 12.3542 17 12.1833 17 12V11H13V9H17V7H12V5H17V3H7V11H9.75C10.3 11 10.8208 11.125 11.3125 11.375C11.8042 11.625 12.2167 11.9667 12.55 12.4C12.6833 12.5833 12.8583 12.7292 13.075 12.8375C13.2917 12.9458 13.5167 13 13.75 13Z" fill="#CCE4F2"/>
</g>
</svg>
