<svg width="178" height="52" viewBox="0 0 178 52" fill="none" xmlns="http://www.w3.org/2000/svg">
<path d="M25.3344 51.4079C11.3299 51.2063 0 39.7487 0 25.7039C0 25.5763 0 25.4553 0.00672 25.3276C0.1008 22.4649 1.46496 19.9583 3.54816 18.3455C5.10048 17.1359 7.06272 16.4236 9.19968 16.4236H16.4304V7.52634C16.4304 6.88122 16.9546 6.35034 17.6064 6.35034C18.2582 6.35034 18.7824 6.88122 18.7824 7.52634V18.7756H9.19296C5.4768 18.7756 2.47296 21.6854 2.35872 25.4015C2.352 25.5023 2.352 25.6031 2.352 25.6972C2.352 28.9161 3.01056 31.9804 4.19328 34.7759C4.27392 34.9708 4.36128 35.159 4.44192 35.3471C7.1232 41.2271 12.1632 45.8102 18.3456 47.8598C19.9651 49.9497 22.4717 51.3139 25.3344 51.4079Z" fill="url(#paint0_linear_3007_1359)"/>
<path d="M51.4079 26.0736C51.2131 40.0781 39.7555 51.408 25.7039 51.408H25.5964C25.5091 51.408 25.4217 51.408 25.3276 51.4013C22.4649 51.3139 19.9583 49.9498 18.3388 47.8598C17.1292 46.3075 16.4169 44.3453 16.4169 42.2083V34.9843H7.53306C7.1433 34.9843 6.78714 34.7894 6.5721 34.487C6.49818 34.3862 6.44442 34.272 6.4041 34.151C6.3705 34.0435 6.35034 33.9226 6.35034 33.8016C6.35034 33.1498 6.88122 32.6256 7.52634 32.6256H18.7756V42.2083C18.7756 45.9312 21.6854 48.9283 25.4015 49.0426C25.462 49.056 25.5225 49.056 25.583 49.056H25.7107C36.0191 49.056 44.782 42.3494 47.8665 33.0691C49.9564 31.4496 51.3139 28.943 51.4079 26.0736Z" fill="url(#paint1_linear_3007_1359)"/>
<path d="M51.408 25.704V25.8115C51.408 25.8989 51.408 25.9862 51.4013 26.0736C51.3139 28.943 49.9498 31.4496 47.8598 33.0624C46.3075 34.272 44.3453 34.9843 42.2083 34.9843H34.9843V43.8749C34.9843 44.5267 34.4602 45.0509 33.8083 45.0509C33.1565 45.0509 32.6323 44.5267 32.6323 43.8749V32.6323H42.215C45.9379 32.6323 48.935 29.7226 49.0493 26.0064C49.056 25.9459 49.056 25.8922 49.056 25.8317V25.704C49.056 22.4851 48.3974 19.4141 47.2147 16.6253C44.6141 10.4765 39.4464 5.66496 33.0691 3.54816C31.4496 1.45824 28.943 0.09408 26.0803 0C40.0848 0.2016 51.408 11.6592 51.408 25.704Z" fill="url(#paint2_linear_3007_1359)"/>
<path d="M45.0509 17.5997C45.0509 18.2448 44.5267 18.7757 43.8749 18.7757H32.6323V9.19296C32.6323 5.4768 29.7226 2.47296 26.0064 2.35872C25.9056 2.352 25.8048 2.352 25.7107 2.352C19.4477 2.352 13.7558 4.83168 9.56256 8.85696H9.55584C6.84768 11.4576 4.75776 14.7034 3.54816 18.3456C1.45824 19.9651 0.09408 22.4717 0 25.3344C0.06048 21.047 1.176 17.0083 3.10464 13.4736C7.4592 5.45664 15.96 0 25.704 0C25.8317 0 25.9526 0 26.0803 0.00672C28.943 0.09408 31.4496 1.45824 33.0624 3.54816C34.272 5.10048 34.9843 7.06272 34.9843 9.19968V16.4304H43.8749C44.3251 16.4304 44.7149 16.679 44.9098 17.0486C45.0038 17.2032 45.0509 17.3981 45.0509 17.5997Z" fill="url(#paint3_linear_3007_1359)"/>
<path d="M30.4283 39.5002H24.6693C22.7137 39.5002 21.1211 37.9076 21.1211 35.952V30.6634H12.291V24.9044C12.291 22.9488 13.8837 21.3562 15.8392 21.3562H21.1278V12.5328H26.8801C28.8357 12.5328 30.4283 14.1255 30.4283 16.081V21.3696H39.2584V27.1287C39.2584 29.0842 37.6657 30.6768 35.7102 30.6768H30.4216V39.5002H30.4283ZM14.6497 28.3114H23.4798V35.952C23.4798 36.6106 24.0107 37.1415 24.6693 37.1415H28.0696V28.3114H35.7102C36.3688 28.3114 36.8997 27.7805 36.8997 27.122V23.7216H28.0696V16.0743C28.0696 15.4157 27.5387 14.8848 26.8801 14.8848H23.4798V23.7216H15.8392C15.1806 23.7216 14.6497 24.2525 14.6497 24.9111V28.3114Z" fill="url(#paint4_linear_3007_1359)"/>
<path d="M9.54912 8.86365C6.84096 11.4643 4.75104 14.71 3.54144 18.3523C1.45824 19.9651 0.09408 22.4717 0 25.3344C0.06048 21.047 1.176 17.0083 3.10464 13.4736C3.10464 13.4736 5.71872 9.72381 9.54912 8.86365Z" fill="url(#paint5_linear_3007_1359)"/>
<path d="M8.86353 41.8589C11.4642 44.567 14.7099 46.657 18.3522 47.8666C19.965 49.9498 22.4715 51.3139 25.3342 51.408C21.0469 51.3475 17.0082 50.232 13.4734 48.3034C13.4734 48.3034 9.72369 45.6893 8.86353 41.8589Z" fill="url(#paint6_linear_3007_1359)"/>
<path d="M41.8589 42.5578C44.567 39.9571 46.657 36.7114 47.8666 33.0691C49.9498 31.4563 51.3139 28.9498 51.408 26.087C51.3475 30.3744 50.232 34.4131 48.3034 37.9478C48.3034 37.9411 45.6893 41.6976 41.8589 42.5578Z" fill="url(#paint7_linear_3007_1359)"/>
<path d="M42.5445 9.56255C39.9438 6.85439 36.6981 4.76447 33.0558 3.55487C31.443 1.47167 28.9365 0.107508 26.0737 0.0134277C30.3611 0.0739077 34.3998 1.18943 37.9345 3.11807C37.9345 3.11135 41.6843 5.73215 42.5445 9.56255Z" fill="url(#paint8_linear_3007_1359)"/>
<path d="M70.728 18.224C71.128 18.24 71.496 18.288 71.832 18.368C72.184 18.432 72.52 18.552 72.84 18.728C73.112 18.856 73.376 19.04 73.632 19.28C73.904 19.504 74.136 19.792 74.328 20.144C74.536 20.48 74.704 20.888 74.832 21.368C74.96 21.832 75.024 22.376 75.024 23V24.56C74.96 25.664 74.72 26.528 74.304 27.152C73.904 27.76 73.472 28.192 73.008 28.448C72.752 28.576 72.456 28.68 72.12 28.76C71.8 28.84 71.472 28.88 71.136 28.88H66.312V34.184L63.648 35.072V18.2H66.264L70.728 18.224ZM70.992 26.144C71.184 26.064 71.336 25.968 71.448 25.856V25.88C71.592 25.768 71.728 25.616 71.856 25.424C72 25.216 72.096 24.952 72.144 24.632L72.12 24.728C72.12 24.68 72.12 24.576 72.12 24.416C72.136 24.256 72.144 24.088 72.144 23.912C72.16 23.72 72.168 23.536 72.168 23.36C72.168 23.184 72.168 23.064 72.168 23C72.168 22.552 72.088 22.2 71.928 21.944C71.768 21.688 71.592 21.488 71.4 21.344C71.176 21.152 70.952 21.024 70.728 20.96H66.312C66.312 21.872 66.312 22.728 66.312 23.528C66.328 24.328 66.336 25.2 66.336 26.144H70.992ZM79.1061 24.968H85.2741V18.176H87.9381V34.856H85.2741V27.848H79.0821V34.184L76.3941 35.072V18.176H79.0821V20.96L79.1061 24.968ZM103.42 34.952H101.5C101.228 34.952 101.004 34.904 100.828 34.808C100.652 34.696 100.508 34.576 100.396 34.448C100.284 34.304 100.196 34.16 100.132 34.016C100.068 33.872 100.028 33.76 100.012 33.68L100.036 33.704L99.4601 32.168L99.0521 31.016C98.9561 30.696 98.8601 30.424 98.7641 30.2C98.6841 29.96 98.5881 29.68 98.4761 29.36H93.4361C93.0841 30.256 92.7161 31.192 92.3321 32.168C91.9481 33.144 91.5801 34.072 91.2281 34.952H88.4201C88.6921 34.264 88.9721 33.552 89.2601 32.816C89.5641 32.08 89.8521 31.36 90.1241 30.656C90.4121 29.936 90.6921 29.248 90.9641 28.592C91.2361 27.936 91.4841 27.328 91.7081 26.768V26.792C92.0921 25.848 92.4681 24.92 92.8361 24.008C93.2201 23.08 93.5641 22.248 93.8681 21.512C94.1721 20.776 94.4201 20.176 94.6121 19.712C94.8041 19.232 94.9161 18.968 94.9481 18.92C95.0601 18.744 95.1801 18.624 95.3081 18.56C95.4361 18.48 95.5801 18.424 95.7401 18.392C95.8681 18.376 95.9881 18.36 96.1001 18.344C96.2121 18.328 96.3241 18.328 96.4361 18.344L96.3881 18.32H97.1321L103.42 34.952ZM96.0521 22.904C95.7961 23.544 95.5481 24.144 95.3081 24.704C95.0841 25.248 94.8281 25.88 94.5401 26.6H97.5161L96.0521 22.904ZM116.365 22.904C116.365 23.8 116.277 24.536 116.101 25.112C115.941 25.672 115.733 26.12 115.477 26.456C115.221 26.792 114.941 27.04 114.637 27.2C114.349 27.344 114.085 27.44 113.845 27.488L117.373 34.856H114.253L110.989 27.536H107.029V34.184L104.413 35.072V18.176H112.501L112.477 18.2C113.165 18.184 113.813 18.344 114.421 18.68V18.656C114.661 18.784 114.893 18.968 115.117 19.208C115.357 19.432 115.565 19.72 115.741 20.072C115.933 20.408 116.085 20.808 116.197 21.272C116.309 21.736 116.365 22.28 116.365 22.904ZM112.357 24.728C112.453 24.696 112.541 24.664 112.621 24.632C112.701 24.6 112.781 24.552 112.861 24.488C112.989 24.36 113.117 24.176 113.245 23.936C113.389 23.696 113.461 23.376 113.461 22.976C113.461 22.512 113.397 22.144 113.269 21.872C113.157 21.6 113.037 21.384 112.909 21.224V21.248C112.829 21.168 112.749 21.104 112.669 21.056C112.605 21.008 112.533 20.96 112.453 20.912H107.029C107.029 21.584 107.029 22.208 107.029 22.784C107.045 23.36 107.053 24.008 107.053 24.728H112.357ZM129.807 18.464L132.639 18.176V34.976H129.903V23.072L126.375 28.976H124.503L120.927 23V34.712L118.191 35.048V18.176L121.071 18.464L125.439 25.4L129.807 18.464ZM148.608 34.952H146.688C146.416 34.952 146.192 34.904 146.016 34.808C145.84 34.696 145.696 34.576 145.584 34.448C145.472 34.304 145.384 34.16 145.32 34.016C145.256 33.872 145.216 33.76 145.2 33.68L145.224 33.704L144.648 32.168L144.24 31.016C144.144 30.696 144.048 30.424 143.952 30.2C143.872 29.96 143.776 29.68 143.664 29.36H138.624C138.272 30.256 137.904 31.192 137.52 32.168C137.136 33.144 136.768 34.072 136.416 34.952H133.608C133.88 34.264 134.16 33.552 134.448 32.816C134.752 32.08 135.04 31.36 135.312 30.656C135.6 29.936 135.88 29.248 136.152 28.592C136.424 27.936 136.672 27.328 136.896 26.768V26.792C137.28 25.848 137.656 24.92 138.024 24.008C138.408 23.08 138.752 22.248 139.056 21.512C139.36 20.776 139.608 20.176 139.8 19.712C139.992 19.232 140.104 18.968 140.136 18.92C140.248 18.744 140.368 18.624 140.496 18.56C140.624 18.48 140.768 18.424 140.928 18.392C141.056 18.376 141.176 18.36 141.288 18.344C141.4 18.328 141.512 18.328 141.624 18.344L141.576 18.32H142.32L148.608 34.952ZM141.24 22.904C140.984 23.544 140.736 24.144 140.496 24.704C140.272 25.248 140.016 25.88 139.728 26.6H142.704L141.24 22.904ZM155.864 20.912C155.512 20.912 155.104 20.92 154.64 20.936C154.176 20.936 153.736 20.992 153.32 21.104C152.92 21.216 152.576 21.408 152.288 21.68C152.016 21.936 151.88 22.312 151.88 22.808V30.464C151.88 30.608 151.928 30.784 152.024 30.992C152.136 31.2 152.36 31.408 152.696 31.616C153.032 31.824 153.52 32 154.16 32.144C154.8 32.288 155.656 32.36 156.728 32.36H160.928V34.976H154.688C154.016 34.976 153.416 34.912 152.888 34.784C152.376 34.656 151.928 34.488 151.544 34.28C151.176 34.072 150.864 33.84 150.608 33.584C150.352 33.312 150.144 33.032 149.984 32.744C149.792 32.408 149.632 32.056 149.504 31.688C149.392 31.304 149.336 30.912 149.336 30.512V22.856C149.336 22.248 149.392 21.72 149.504 21.272C149.632 20.808 149.792 20.416 149.984 20.096C150.176 19.76 150.392 19.488 150.632 19.28C150.888 19.056 151.152 18.872 151.424 18.728C152.016 18.408 152.712 18.248 153.512 18.248H161.504L160.424 20.912H155.864ZM169.17 26.576L173.442 18.176H176.538L170.346 29.864V34.88H167.778V29.816L161.586 18.176H164.706L168.954 26.576H169.17Z" fill="#5DA2A2"/>
<defs>
<linearGradient id="paint0_linear_3007_1359" x1="40.3849" y1="5.71376" x2="6.15135" y2="44.0422" gradientUnits="userSpaceOnUse">
<stop stop-color="#69B376"/>
<stop offset="1" stop-color="#71C8CB"/>
</linearGradient>
<linearGradient id="paint1_linear_3007_1359" x1="48.2514" y1="12.74" x2="14.0177" y2="51.0686" gradientUnits="userSpaceOnUse">
<stop stop-color="#69B376"/>
<stop offset="1" stop-color="#71C8CB"/>
</linearGradient>
<linearGradient id="paint2_linear_3007_1359" x1="43.9198" y1="8.87114" x2="9.68614" y2="47.1999" gradientUnits="userSpaceOnUse">
<stop stop-color="#69B376"/>
<stop offset="1" stop-color="#71C8CB"/>
</linearGradient>
<linearGradient id="paint3_linear_3007_1359" x1="36.0498" y1="1.84397" x2="1.81628" y2="40.1724" gradientUnits="userSpaceOnUse">
<stop stop-color="#69B376"/>
<stop offset="1" stop-color="#71C8CB"/>
</linearGradient>
<linearGradient id="paint4_linear_3007_1359" x1="42.3445" y1="7.46408" x2="8.11091" y2="45.7927" gradientUnits="userSpaceOnUse">
<stop stop-color="#69B376"/>
<stop offset="1" stop-color="#71C8CB"/>
</linearGradient>
<linearGradient id="paint5_linear_3007_1359" x1="2.15147" y1="21.3987" x2="5.70044" y2="12.4991" gradientUnits="userSpaceOnUse">
<stop/>
<stop offset="1" stop-opacity="0"/>
</linearGradient>
<linearGradient id="paint6_linear_3007_1359" x1="21.3987" y1="49.2573" x2="12.499" y2="45.7084" gradientUnits="userSpaceOnUse">
<stop/>
<stop offset="1" stop-opacity="0"/>
</linearGradient>
<linearGradient id="paint7_linear_3007_1359" x1="49.2575" y1="30.0176" x2="45.7084" y2="38.9172" gradientUnits="userSpaceOnUse">
<stop/>
<stop offset="1" stop-opacity="0"/>
</linearGradient>
<linearGradient id="paint8_linear_3007_1359" x1="30.0104" y1="2.15906" x2="38.9101" y2="5.70789" gradientUnits="userSpaceOnUse">
<stop/>
<stop offset="1" stop-opacity="0"/>
</linearGradient>
</defs>
</svg>
