<svg width="16" height="16" viewBox="0 0 16 16" fill="none" xmlns="http://www.w3.org/2000/svg">
<mask id="mask0_1359_12307" style="mask-type:alpha" maskUnits="userSpaceOnUse" x="0" y="0" width="16" height="16">
<rect width="16" height="16" fill="#8795A0"/>
</mask>
<g mask="url(#mask0_1359_12307)">
<path d="M2.00004 13.3334V5.80004C1.81115 5.67782 1.65282 5.52226 1.52504 5.33337C1.39726 5.14448 1.33337 4.92226 1.33337 4.66671V2.66671C1.33337 2.30004 1.46393 1.98615 1.72504 1.72504C1.98615 1.46393 2.30004 1.33337 2.66671 1.33337H13.3334C13.7 1.33337 14.0139 1.46393 14.275 1.72504C14.5362 1.98615 14.6667 2.30004 14.6667 2.66671V4.66671C14.6667 4.92226 14.6028 5.14448 14.475 5.33337C14.3473 5.52226 14.1889 5.67782 14 5.80004V13.3334C14 13.7 13.8695 14.0139 13.6084 14.275C13.3473 14.5362 13.0334 14.6667 12.6667 14.6667H3.33337C2.96671 14.6667 2.65282 14.5362 2.39171 14.275C2.1306 14.0139 2.00004 13.7 2.00004 13.3334ZM13.3334 4.66671V2.66671H2.66671V4.66671H13.3334ZM6.00004 9.33337H10V8.00004H6.00004V9.33337Z" fill="#8795A0"/>
</g>
</svg>
