<svg width="24" height="24" viewBox="0 0 24 24" fill="none" xmlns="http://www.w3.org/2000/svg">
<mask id="mask0_1321_6015" style="mask-type:alpha" maskUnits="userSpaceOnUse" x="0" y="0" width="24" height="24">
<rect width="24" height="24" fill="#0F408A"/>
</mask>
<g mask="url(#mask0_1321_6015)">
<path d="M3.9 11.175C3.71667 10.975 3.625 10.7375 3.625 10.4625C3.625 10.1875 3.71667 9.94995 3.9 9.74995L6.7 6.94995L5.625 5.87495L5.325 6.17495C5.125 6.37495 4.8875 6.47495 4.6125 6.47495C4.3375 6.47495 4.1 6.37495 3.9 6.17495C3.71667 5.97495 3.625 5.73745 3.625 5.46245C3.625 5.18745 3.71667 4.95828 3.9 4.77495L5.9 2.77495C6.1 2.57495 6.3375 2.47495 6.6125 2.47495C6.8875 2.47495 7.125 2.57495 7.325 2.77495C7.525 2.95828 7.625 3.19162 7.625 3.47495C7.625 3.75828 7.525 3.99162 7.325 4.17495L7.025 4.47495L8.1 5.54995L10.9 2.74995C11.1 2.54995 11.3375 2.44995 11.6125 2.44995C11.8875 2.44995 12.125 2.54995 12.325 2.74995C12.525 2.94995 12.625 3.18745 12.625 3.46245C12.625 3.73745 12.525 3.97495 12.325 4.17495L11.65 4.82495L13.2 6.37495L10.375 9.17495C10.1917 9.37495 10.1 9.61245 10.1 9.88745C10.1 10.1625 10.1917 10.4 10.375 10.6C10.575 10.8 10.8125 10.9 11.0875 10.9C11.3625 10.9 11.6 10.8 11.8 10.6L14.6 7.77495L16.125 9.27495L13.3 12.1C13.1 12.3 13 12.5375 13 12.8125C13 13.0875 13.1 13.325 13.3 13.525C13.4833 13.7083 13.7125 13.7958 13.9875 13.7875C14.2625 13.7791 14.5 13.6833 14.7 13.5L17.5 10.675L19.025 12.2C19.4083 12.5833 19.6 13.0541 19.6 13.6125C19.6 14.1708 19.4083 14.6416 19.025 15.025L18.325 15.75L23.05 20.45H20.2L16.9 17.15L16.2 17.875C15.8167 18.2583 15.3458 18.45 14.7875 18.45C14.2292 18.45 13.7583 18.2583 13.375 17.875L6 10.5L5.325 11.175C5.125 11.3583 4.8875 11.45 4.6125 11.45C4.3375 11.45 4.1 11.3583 3.9 11.175Z" fill="#0F408A"/>
</g>
</svg>
